<?xml version="1.0" encoding="UTF-8" standalone="no"?>
<!-- Generator: Adobe Illustrator 14.0.0, SVG Export Plug-In . SVG Version: 6.00 Build 43363)  -->

<svg
   xmlns:dc="http://purl.org/dc/elements/1.1/"
   xmlns:cc="http://creativecommons.org/ns#"
   xmlns:rdf="http://www.w3.org/1999/02/22-rdf-syntax-ns#"
   xmlns:svg="http://www.w3.org/2000/svg"
   xmlns="http://www.w3.org/2000/svg"
   xmlns:sodipodi="http://sodipodi.sourceforge.net/DTD/sodipodi-0.dtd"
   xmlns:inkscape="http://www.inkscape.org/namespaces/inkscape"
   version="1.1"
   id="Layer_1"
   x="0px"
   y="0px"
   width="302.89526"
   height="300.07861"
   viewBox="0 0 302.89526 197.70488"
   enable-background="new 0 0 612 792"
   xml:space="preserve"
   inkscape:version="0.48.5 r10040"
   sodipodi:docname="interactive.svg"><metadata
     id="metadata22649"><rdf:RDF><cc:Work
         rdf:about=""><dc:format>image/svg+xml</dc:format><dc:type
           rdf:resource="http://purl.org/dc/dcmitype/StillImage" /><dc:title /></cc:Work></rdf:RDF></metadata><defs
     id="defs22647" /><sodipodi:namedview
     pagecolor="#ffffff"
     bordercolor="#666666"
     borderopacity="1"
     objecttolerance="10"
     gridtolerance="10"
     guidetolerance="10"
     inkscape:pageopacity="0"
     inkscape:pageshadow="2"
     inkscape:window-width="714"
     inkscape:window-height="747"
     id="namedview22645"
     showgrid="false"
     fit-margin-top="10"
     fit-margin-left="10"
     fit-margin-bottom="10"
     fit-margin-right="10"
     inkscape:zoom="0.84929095"
     inkscape:cx="155.38018"
     inkscape:cy="107.13543"
     inkscape:window-x="716"
     inkscape:window-y="19"
     inkscape:window-maximized="0"
     inkscape:current-layer="Layer_1" /><g
     id="g23693"
     transform="matrix(0.90016355,0,0,0.90016355,15.119994,9.8690767)"><path
       inkscape:connector-curvature="0"
       id="path23233"
       d="m 191.7292,181.11018 -150.62617,-1e-5 C 26.64195,181.11017 15,169.46822 15,155.00714 L 15,41.10303 C 15,26.64195 26.64195,15 41.10303,15 l 0,0 220.68921,0 c 14.46107,0 26.10302,11.64195 26.10302,26.10303 l 0,113.90411 c 0,14.46108 -11.64195,26.10303 -26.10302,26.10303 l -8.03132,-1e-5"
       style="fill:none;stroke:#27ba00;stroke-width:10;stroke-linecap:butt;stroke-linejoin:round;stroke-miterlimit:0;stroke-opacity:1;stroke-dasharray:none;stroke-dashoffset:0" /><path
       inkscape:connector-curvature="0"
       id="path23299"
       d="m 197.90964,181.87679 0,-5.82809 -3.12219,0 -3.12219,0 0,-5.8281 0,-5.82809 -2.91405,0 -2.91405,0 0,-6.03624 0,-6.03624 -2.91405,0 -2.91404,0 0,-5.8281 0,-5.82809 -2.91405,0 -2.91405,0 0,-2.91405 0,-2.91404 -3.12219,0 -3.12219,0 0,-7.07697 0,-7.07698 5.82809,0 5.82809,0 0,2.91405 0,2.91405 2.91405,0 2.91405,0 0,10.19916 0,10.19917 3.12219,0 3.1222,0 0,-39.75593 0,-39.75593 5.82809,0 5.82809,0 0,26.64272 0,26.64271 3.1222,0 3.12219,0 0,-11.86433 0,-11.86433 7.28512,0 7.28511,0 0,11.88257 0,11.88257 3.01812,-0.12231 3.01812,-0.12231 0.11236,-8.84622 0.11235,-8.84621 5.61167,0 5.61167,0 0,11.86433 0,11.86434 3.33034,0 3.33033,0 0,-8.95029 0,-8.95029 2.70591,0 2.7059,0 0,2.91405 0,2.91405 2.91404,0 2.91405,0 0,22.0635 0,22.06349 -2.91405,0 -2.91404,0 0,8.74215 0,8.74214 -2.91405,0 -2.91405,0 0,5.82809 0,5.82809 -24.97754,0 -24.97755,0 0,-5.82809 z"
       style="fill:#ffffff;fill-opacity:0.30694089;stroke:none" /><path
       transform="matrix(1.440678,0,0,1.440678,-62.43026,-515.11959)"
       d="m 192.74339,391.31854 c 0,6.78241 -5.49822,12.28063 -12.28062,12.28063 -6.7824,0 -12.28063,-5.49822 -12.28063,-12.28063 0,-6.7824 5.49823,-12.28062 12.28063,-12.28062 6.7824,0 12.28062,5.49822 12.28062,12.28062 z"
       sodipodi:ry="12.280626"
       sodipodi:rx="12.280626"
       sodipodi:cy="391.31854"
       sodipodi:cx="180.46277"
       id="path23237-2-1"
       style="fill:none;stroke:#31ed00;stroke-opacity:1"
       sodipodi:type="arc" /><g
       transform="translate(-119.24005,-336.84601)"
       style="fill:#31ed00;fill-opacity:1"
       id="g23637"><path
         sodipodi:type="arc"
         style="fill:#31ed00;fill-opacity:1;stroke:none"
         id="path23237"
         sodipodi:cx="180.46277"
         sodipodi:cy="391.31854"
         sodipodi:rx="12.280626"
         sodipodi:ry="12.280626"
         d="m 192.74339,391.31854 c 0,6.78241 -5.49822,12.28063 -12.28062,12.28063 -6.7824,0 -12.28063,-5.49822 -12.28063,-12.28063 0,-6.7824 5.49823,-12.28062 12.28063,-12.28062 6.7824,0 12.28062,5.49822 12.28062,12.28062 z"
         transform="matrix(1.440678,0,0,1.440678,-90.301046,-178.27358)" /><path
         sodipodi:type="arc"
         style="fill:#31ed00;fill-opacity:1;stroke:none"
         id="path23237-2"
         sodipodi:cx="180.46277"
         sodipodi:cy="391.31854"
         sodipodi:rx="12.280626"
         sodipodi:ry="12.280626"
         d="m 192.74339,391.31854 c 0,6.78241 -5.49822,12.28063 -12.28062,12.28063 -6.7824,0 -12.28063,-5.49822 -12.28063,-12.28063 0,-6.7824 5.49823,-12.28062 12.28063,-12.28062 6.7824,0 12.28062,5.49822 12.28062,12.28062 z"
         transform="matrix(1.440678,0,0,1.440678,110.51152,-178.27358)" /><path
         sodipodi:type="arc"
         style="fill:#31ed00;fill-opacity:1;stroke:none"
         id="path23237-2-5"
         sodipodi:cx="180.46277"
         sodipodi:cy="391.31854"
         sodipodi:rx="12.280626"
         sodipodi:ry="12.280626"
         d="m 192.74339,391.31854 c 0,6.78241 -5.49822,12.28063 -12.28062,12.28063 -6.7824,0 -12.28063,-5.49822 -12.28063,-12.28063 0,-6.7824 5.49823,-12.28062 12.28063,-12.28062 6.7824,0 12.28062,5.49822 12.28062,12.28062 z"
         transform="matrix(1.440678,0,0,1.440678,6.022119,-178.27358)" /><path
         sodipodi:type="arc"
         style="fill:#31ed00;fill-opacity:1;stroke:none"
         id="path23237-2-4"
         sodipodi:cx="180.46277"
         sodipodi:cy="391.31854"
         sodipodi:rx="12.280626"
         sodipodi:ry="12.280626"
         d="m 192.74339,391.31854 c 0,6.78241 -5.49822,12.28063 -12.28062,12.28063 -6.7824,0 -12.28063,-5.49822 -12.28063,-12.28063 0,-6.7824 5.49823,-12.28062 12.28063,-12.28062 6.7824,0 12.28062,5.49822 12.28062,12.28062 z"
         transform="matrix(1.440678,0,0,1.440678,-44.349264,-178.27358)" /><g
         style="fill:#31ed00;fill-opacity:1"
         id="g23436"
         transform="translate(0,49.999988)"><path
           sodipodi:type="arc"
           style="fill:#31ed00;fill-opacity:1;stroke:none"
           id="path23438"
           sodipodi:cx="180.46277"
           sodipodi:cy="391.31854"
           sodipodi:rx="12.280626"
           sodipodi:ry="12.280626"
           d="m 192.74339,391.31854 c 0,6.78241 -5.49822,12.28063 -12.28062,12.28063 -6.7824,0 -12.28063,-5.49822 -12.28063,-12.28063 0,-6.7824 5.49823,-12.28062 12.28063,-12.28062 6.7824,0 12.28062,5.49822 12.28062,12.28062 z"
           transform="matrix(1.440678,0,0,1.440678,-90.301046,-178.27357)" /><path
           sodipodi:type="arc"
           style="fill:#31ed00;fill-opacity:1;stroke:none"
           id="path23440"
           sodipodi:cx="180.46277"
           sodipodi:cy="391.31854"
           sodipodi:rx="12.280626"
           sodipodi:ry="12.280626"
           d="m 192.74339,391.31854 c 0,6.78241 -5.49822,12.28063 -12.28062,12.28063 -6.7824,0 -12.28063,-5.49822 -12.28063,-12.28063 0,-6.7824 5.49823,-12.28062 12.28063,-12.28062 6.7824,0 12.28062,5.49822 12.28062,12.28062 z"
           transform="matrix(1.440678,0,0,1.440678,110.51152,-178.27357)" /><path
           sodipodi:type="arc"
           style="fill:#31ed00;fill-opacity:1;stroke:none"
           id="path23442"
           sodipodi:cx="180.46277"
           sodipodi:cy="391.31854"
           sodipodi:rx="12.280626"
           sodipodi:ry="12.280626"
           d="m 192.74339,391.31854 c 0,6.78241 -5.49822,12.28063 -12.28062,12.28063 -6.7824,0 -12.28063,-5.49822 -12.28063,-12.28063 0,-6.7824 5.49823,-12.28062 12.28063,-12.28062 6.7824,0 12.28062,5.49822 12.28062,12.28062 z"
           transform="matrix(1.440678,0,0,1.440678,56.80979,-178.27357)" /><path
           sodipodi:type="arc"
           style="fill:#31ed00;fill-opacity:1;stroke:none"
           id="path23444"
           sodipodi:cx="180.46277"
           sodipodi:cy="391.31854"
           sodipodi:rx="12.280626"
           sodipodi:ry="12.280626"
           d="m 192.74339,391.31854 c 0,6.78241 -5.49822,12.28063 -12.28062,12.28063 -6.7824,0 -12.28063,-5.49822 -12.28063,-12.28063 0,-6.7824 5.49823,-12.28062 12.28063,-12.28062 6.7824,0 12.28062,5.49822 12.28062,12.28062 z"
           transform="matrix(1.440678,0,0,1.440678,6.022119,-178.27357)" /><path
           sodipodi:type="arc"
           style="fill:#31ed00;fill-opacity:1;stroke:none"
           id="path23446"
           sodipodi:cx="180.46277"
           sodipodi:cy="391.31854"
           sodipodi:rx="12.280626"
           sodipodi:ry="12.280626"
           d="m 192.74339,391.31854 c 0,6.78241 -5.49822,12.28063 -12.28062,12.28063 -6.7824,0 -12.28063,-5.49822 -12.28063,-12.28063 0,-6.7824 5.49823,-12.28062 12.28063,-12.28062 6.7824,0 12.28062,5.49822 12.28062,12.28062 z"
           transform="matrix(1.440678,0,0,1.440678,-44.349264,-178.27357)" /></g><g
         style="fill:#31ed00;fill-opacity:1"
         transform="translate(0,99.999988)"
         id="g23448"><path
           transform="matrix(1.440678,0,0,1.440678,-90.301046,-178.27357)"
           d="m 192.74339,391.31854 c 0,6.78241 -5.49822,12.28063 -12.28062,12.28063 -6.7824,0 -12.28063,-5.49822 -12.28063,-12.28063 0,-6.7824 5.49823,-12.28062 12.28063,-12.28062 6.7824,0 12.28062,5.49822 12.28062,12.28062 z"
           sodipodi:ry="12.280626"
           sodipodi:rx="12.280626"
           sodipodi:cy="391.31854"
           sodipodi:cx="180.46277"
           id="path23450"
           style="fill:#31ed00;fill-opacity:1;stroke:none"
           sodipodi:type="arc" /><path
           transform="matrix(1.440678,0,0,1.440678,110.51152,-178.27357)"
           d="m 192.74339,391.31854 c 0,6.78241 -5.49822,12.28063 -12.28062,12.28063 -6.7824,0 -12.28063,-5.49822 -12.28063,-12.28063 0,-6.7824 5.49823,-12.28062 12.28063,-12.28062 6.7824,0 12.28062,5.49822 12.28062,12.28062 z"
           sodipodi:ry="12.280626"
           sodipodi:rx="12.280626"
           sodipodi:cy="391.31854"
           sodipodi:cx="180.46277"
           id="path23452"
           style="fill:#31ed00;fill-opacity:1;stroke:none"
           sodipodi:type="arc" /><path
           transform="matrix(1.440678,0,0,1.440678,56.80979,-178.27357)"
           d="m 192.74339,391.31854 c 0,6.78241 -5.49822,12.28063 -12.28062,12.28063 -6.7824,0 -12.28063,-5.49822 -12.28063,-12.28063 0,-6.7824 5.49823,-12.28062 12.28063,-12.28062 6.7824,0 12.28062,5.49822 12.28062,12.28062 z"
           sodipodi:ry="12.280626"
           sodipodi:rx="12.280626"
           sodipodi:cy="391.31854"
           sodipodi:cx="180.46277"
           id="path23454"
           style="fill:#31ed00;fill-opacity:1;stroke:none"
           sodipodi:type="arc" /><path
           transform="matrix(1.440678,0,0,1.440678,6.022119,-178.27357)"
           d="m 192.74339,391.31854 c 0,6.78241 -5.49822,12.28063 -12.28062,12.28063 -6.7824,0 -12.28063,-5.49822 -12.28063,-12.28063 0,-6.7824 5.49823,-12.28062 12.28063,-12.28062 6.7824,0 12.28062,5.49822 12.28062,12.28062 z"
           sodipodi:ry="12.280626"
           sodipodi:rx="12.280626"
           sodipodi:cy="391.31854"
           sodipodi:cx="180.46277"
           id="path23456"
           style="fill:#31ed00;fill-opacity:1;stroke:none"
           sodipodi:type="arc" /><path
           transform="matrix(1.440678,0,0,1.440678,-44.349264,-178.27357)"
           d="m 192.74339,391.31854 c 0,6.78241 -5.49822,12.28063 -12.28062,12.28063 -6.7824,0 -12.28063,-5.49822 -12.28063,-12.28063 0,-6.7824 5.49823,-12.28062 12.28063,-12.28062 6.7824,0 12.28062,5.49822 12.28062,12.28062 z"
           sodipodi:ry="12.280626"
           sodipodi:rx="12.280626"
           sodipodi:cy="391.31854"
           sodipodi:cx="180.46277"
           id="path23458"
           style="fill:#31ed00;fill-opacity:1;stroke:none"
           sodipodi:type="arc" /></g></g><g
       style="fill:#27ba00;fill-opacity:1"
       transform="matrix(0.85085066,0,0,0.84743339,-48.387633,-220.34302)"
       id="g23207"><polygon
         style="fill:#27ba00;fill-opacity:1;fill-rule:evenodd"
         id="polygon22617"
         points="292.503,320.569 292.503,313.144 277.653,313.144 277.653,313.144 277.653,320.569 "
         clip-rule="evenodd" /><polygon
         style="fill:#27ba00;fill-opacity:1;fill-rule:evenodd"
         id="polygon22619"
         points="270.229,420.451 277.653,420.451 277.653,320.569 277.653,320.569 270.229,320.569 270.229,387.156 262.923,387.156 262.923,394.582 270.229,394.582 "
         clip-rule="evenodd" /><polygon
         style="fill:#27ba00;fill-opacity:1;fill-rule:evenodd"
         id="polygon22621"
         points="318.373,350.15 299.81,350.15 299.81,320.569 299.81,320.569 292.503,320.569 292.503,387.156 299.81,387.156 299.81,357.576 318.373,357.576 "
         clip-rule="evenodd" /><polygon
         style="fill:#27ba00;fill-opacity:1;fill-rule:evenodd"
         id="polygon22623"
         points="240.647,405.6 248.073,405.6 248.073,387.156 262.923,387.156 262.923,387.156 262.923,379.731 240.647,379.731 "
         clip-rule="evenodd" /><polygon
         style="fill:#27ba00;fill-opacity:1;fill-rule:evenodd"
         id="polygon22625"
         points="255.498,413.023 255.498,405.6 248.073,405.6 248.073,405.6 248.073,413.023 "
         clip-rule="evenodd" /><polygon
         style="fill:#27ba00;fill-opacity:1;fill-rule:evenodd"
         id="polygon22627"
         points="255.498,427.756 262.923,427.756 262.923,413.023 262.923,413.023 255.498,413.023 "
         clip-rule="evenodd" /><polygon
         style="fill:#27ba00;fill-opacity:1;fill-rule:evenodd"
         id="polygon22629"
         points="262.923,442.607 270.229,442.607 270.229,427.756 270.229,427.756 262.923,427.756 "
         clip-rule="evenodd" /><polygon
         style="fill:#27ba00;fill-opacity:1;fill-rule:evenodd"
         id="polygon22631"
         points="270.229,457.336 277.653,457.336 277.653,442.607 277.653,442.607 270.229,442.607 "
         clip-rule="evenodd" /><polygon
         style="fill:#27ba00;fill-opacity:1;fill-rule:evenodd"
         id="polygon22633"
         points="355.26,379.731 362.685,379.731 362.685,372.306 362.685,372.306 355.26,372.306 "
         clip-rule="evenodd" /><polygon
         style="fill:#27ba00;fill-opacity:1;fill-rule:evenodd"
         id="polygon22635"
         points="340.528,394.582 347.953,394.582 347.953,372.306 355.26,372.306 355.26,372.306 355.26,364.881 340.528,364.881 "
         clip-rule="evenodd" /><polygon
         style="fill:#27ba00;fill-opacity:1;fill-rule:evenodd"
         id="polygon22637"
         points="362.685,435.18 370.108,435.18 370.108,379.731 370.108,379.731 362.685,379.731 "
         clip-rule="evenodd" /><polygon
         style="fill:#27ba00;fill-opacity:1;fill-rule:evenodd"
         id="polygon22639"
         points="318.373,387.156 325.678,387.156 325.678,364.881 340.528,364.881 340.528,364.881 340.528,357.576 318.373,357.576 "
         clip-rule="evenodd" /><polygon
         style="fill:#27ba00;fill-opacity:1;fill-rule:evenodd"
         id="polygon22641"
         points="355.26,457.336 362.685,457.336 362.685,435.18 362.685,435.18 355.26,435.18 "
         clip-rule="evenodd" /><polygon
         style="fill:#27ba00;fill-opacity:1;fill-rule:evenodd"
         id="polygon22643"
         points="277.653,457.336 277.653,479.611 355.26,479.611 355.26,479.611 355.26,457.336 347.953,457.336 347.953,472.186 285.079,472.186 285.079,457.336 "
         clip-rule="evenodd" /></g><path
       inkscape:connector-curvature="0"
       id="path23601"
       d="m 194.47247,173.38304 0,-6.25652 -3.28468,0 -3.28467,0 0,-6.25652 0,-6.25652 -3.12826,0 -3.12826,0 0,-6.25653 0,-6.25651 -3.12827,0 -3.12825,0 0,-6.25652 0,-6.25652 -3.12826,0 -3.12826,0 0,-3.12826 0,-3.12826 -3.12826,0 -3.12826,0 0,-7.66424 0,-7.66424 6.10011,0 6.1001,0 0,3.12826 0,3.12827 3.12826,0 3.12826,0 0,10.94891 0,10.9489 3.28468,0 3.28467,0 0,-42.38792 0,-42.38793 6.25651,0 6.25653,0 0,28.31076 0,28.31075 3.28467,0 3.28468,0 0,-12.51304 0,-12.51303 7.66423,0 7.66424,0 0,12.51303 0,12.51304 3.28468,0 3.28467,0 0,-9.54119 0,-9.54119 6.1001,0 6.10011,0 0,12.66945 0,12.66946 3.44109,0 3.44108,0 0,-9.5412 0,-9.54119 2.81543,0 2.81544,0 0,3.28467 0,3.28468 3.28468,0 3.28467,0 0,23.30554 0,23.30552 -3.28467,0 -3.28468,0 0,9.38479 0,9.38478 -2.97185,0 -2.97184,0 0,6.25652 0,6.25652 -26.59021,0 -26.59021,0 0,-6.25652 z"
       style="fill:#ffffff;fill-opacity:1;stroke:#27ba00;stroke-width:0.85017699;stroke-linecap:square;stroke-linejoin:miter;stroke-miterlimit:4;stroke-opacity:1;stroke-dasharray:none;stroke-dashoffset:0" /></g></svg>