<?xml version="1.0" encoding="utf-8"?>
<!-- Generator: Adobe Illustrator 14.0.0, SVG Export Plug-In . SVG Version: 6.00 Build 43363)  -->
<!DOCTYPE svg PUBLIC "-//W3C//DTD SVG 1.1//EN" "http://www.w3.org/Graphics/SVG/1.1/DTD/svg11.dtd">
<svg version="1.1" id="Layer_1" xmlns="http://www.w3.org/2000/svg" xmlns:xlink="http://www.w3.org/1999/xlink" x="0px" y="0px"
	 width="612px" height="792px" viewBox="0 0 612 792" enable-background="new 0 0 612 792" xml:space="preserve">
<g>
	<polygon fill-rule="evenodd" clip-rule="evenodd" fill="#FFFFFF" points="209,300 401.756,300 401.756,492.756 209,492.756 
		209,300 	"/>
	<polygon fill-rule="evenodd" clip-rule="evenodd" points="277.653,313.144 277.653,320.569 292.503,320.569 292.503,313.144 
		277.653,313.144 	"/>
	<polygon fill-rule="evenodd" clip-rule="evenodd" points="277.653,320.569 270.229,320.569 270.229,387.156 262.923,387.156 
		262.923,394.582 270.229,394.582 270.229,420.451 277.653,420.451 277.653,320.569 	"/>
	<polygon fill-rule="evenodd" clip-rule="evenodd" points="299.81,320.569 292.503,320.569 292.503,387.156 299.81,387.156 
		299.81,357.576 318.373,357.576 318.373,350.15 299.81,350.15 299.81,320.569 	"/>
	<polygon fill-rule="evenodd" clip-rule="evenodd" points="262.923,387.156 262.923,379.731 240.647,379.731 240.647,405.6 
		248.073,405.6 248.073,387.156 262.923,387.156 	"/>
	<polygon fill-rule="evenodd" clip-rule="evenodd" points="248.073,405.6 248.073,413.023 255.498,413.023 255.498,405.6 
		248.073,405.6 	"/>
	<polygon fill-rule="evenodd" clip-rule="evenodd" points="262.923,413.023 255.498,413.023 255.498,427.756 262.923,427.756 
		262.923,413.023 	"/>
	<polygon fill-rule="evenodd" clip-rule="evenodd" points="270.229,427.756 262.923,427.756 262.923,442.607 270.229,442.607 
		270.229,427.756 	"/>
	<polygon fill-rule="evenodd" clip-rule="evenodd" points="277.653,442.607 270.229,442.607 270.229,457.336 277.653,457.336 
		277.653,442.607 	"/>
	<polygon fill-rule="evenodd" clip-rule="evenodd" points="362.685,372.306 355.26,372.306 355.26,379.731 362.685,379.731 
		362.685,372.306 	"/>
	<polygon fill-rule="evenodd" clip-rule="evenodd" points="355.26,372.306 355.26,364.881 340.528,364.881 340.528,394.582 
		347.953,394.582 347.953,372.306 355.26,372.306 	"/>
	<polygon fill-rule="evenodd" clip-rule="evenodd" points="370.108,379.731 362.685,379.731 362.685,435.18 370.108,435.18 
		370.108,379.731 	"/>
	<polygon fill-rule="evenodd" clip-rule="evenodd" points="340.528,364.881 340.528,357.576 318.373,357.576 318.373,387.156 
		325.678,387.156 325.678,364.881 340.528,364.881 	"/>
	<polygon fill-rule="evenodd" clip-rule="evenodd" points="362.685,435.18 355.26,435.18 355.26,457.336 362.685,457.336 
		362.685,435.18 	"/>
	<polygon fill-rule="evenodd" clip-rule="evenodd" points="355.26,479.611 355.26,457.336 347.953,457.336 347.953,472.186 
		285.079,472.186 285.079,457.336 277.653,457.336 277.653,479.611 355.26,479.611 	"/>
</g>
</svg>
